<?xml version="1.0" encoding="utf-8"?>
<!-- Generator: Adobe Adobe Illustrator 24.2.0, SVG Export Plug-In . SVG Version: 6.00 Build 0)  -->
<svg version="1.1" id="Layer_1" xmlns="http://www.w3.org/2000/svg" xmlns:xlink="http://www.w3.org/1999/xlink" x="0px" y="0px"
	 width="1800px" height="500px" viewBox="0 0 1800 500" style="enable-background:new 0 0 1800 500;" xml:space="preserve">
<style type="text/css">
	.st0{fill:#FFFFFF;}
</style>
<g>
	<path class="st0" d="M916.11,243.54c14.09,14,27.52,27.48,41.02,40.89c2.36,2.35,5.27,4.81,3.87,8.26
		c-6.63,16.32-11.03,34.1-31.22,40.47c-16.67,5.26-28.99-1-40.4-12.07c-2.58-2.5-5.5-4.81-8.63-6.57
		c-16.5-9.26-21.56-6.4-21.67,12.13c-0.09,15.41-0.23,30.83,0.01,46.23c0.13,8.2-3.33,10.98-11.52,11.78
		c-68.24,6.65-128.25-35.52-146.03-98.92c-17.47-62.29,13.24-133.13,77.81-159.74c28.43-11.71,57.64-15.41,87.65-6.13
		c1.93,0.6,4.02,0.71,5.35,4.22c-9.31,14.21-24.61,24.05-36.93,40.15C862.13,190.53,888.8,216.76,916.11,243.54z M805.55,329.26
		c1.2-2.64,1.99-5.47,0.83-8.2c-2.82-6.59-5.12-15.86-13.23-15.33c-8.55,0.56-6.98,10.36-8.18,16.71
		c-1.02,5.36-0.12,10.91,5.38,13.59C796.47,339.02,801.19,336.15,805.55,329.26z"/>
	<path class="st0" d="M351.64,296.82c-1.22,5.78-2.54,10.51-2.97,15.32c-0.58,6.36-4.68,6.6-9.45,6.51c-5.4-0.1-7.08-3.38-6.68-7.99
		c0.85-9.65,1.25-19.43,3.17-28.89c6.78-33.26,10.95-66.91,16.26-100.4c1.74-11,9.48-18.98,19.68-19.85
		c10.2-0.87,19.89,5.63,22.83,16.19c9.29,33.37,18.22,66.84,27.48,100.23c1.39,5.02,3.74,9.77,6.31,16.33
		c7.54-12.49,9.48-25.57,13.19-37.79c7.49-24.69,13.49-49.83,20.73-74.6c2.45-8.37,5.34-16.96,16.13-19.36
		c12.89-2.87,24.2,3.34,25.91,16.58c4.61,35.61,12.72,70.71,14.96,106.67c0.47,7.58,3.24,14.99,4.37,22.57
		c0.85,5.68-0.07,10.56-7.84,10.47c-6.11-0.07-9.68-1.67-10.52-8.65c-4.75-39.25-9.83-78.46-14.93-117.66
		c-0.61-4.72-1.22-9.72-6.54-13.52c-8.89,9.06-9.95,21.41-13.32,32.48c-8.91,29.32-17.02,58.89-25.71,88.28
		c-2.29,7.76-7.65,12.06-16.28,11.72c-8.53-0.34-13.3-4.96-15.58-12.72c-10.58-36-21.17-72-31.65-108.04
		c-1.34-4.63-1.83-9.56-9.1-12.64C361.34,217,359.18,256.88,351.64,296.82z"/>
	<path class="st0" d="M538.99,318.59c-6.25-1.52-5.14-5.5-4.08-8.91c8.24-26.55,16.56-53.08,25.01-79.57
		c5.14-16.12,10.62-32.14,15.82-48.24c4.25-13.16,12.83-20.16,25.43-20.43c12.94-0.28,22.47,7.07,26.71,20.48
		c13.36,42.22,26.74,84.44,40.16,126.65c0.88,2.76,1.81,5.39-0.02,8.7c-9.58,3.51-16.52,2.34-18.62-10.05
		c-1.2-7.09-3.84-13.95-6.01-20.85c-2.06-6.54-6.33-9.8-13.54-9.71c-18.63,0.23-37.26,0.1-55.9,0.04
		c-7.36-0.02-12.19,2.49-13.81,10.53c-1.42,7.06-4.94,13.73-6.09,20.8C552.63,316.74,548.26,319.91,538.99,318.59z M629.78,243.44
		c-1-3.07-2.04-6.13-2.99-9.21c-4.73-15.43-9.39-30.89-14.17-46.31c-1.66-5.36-4.79-9.63-10.85-10.03
		c-5.83-0.38-8.65,3.51-10.22,8.58c-7.46,24.17-14.92,48.34-22.85,74.05c22.26,0.35,42.93,1.8,64.27-1.97
		C631.98,253.05,631.26,249.12,629.78,243.44z"/>
	<path class="st0" d="M1240.4,303.43c-9.07-26.85-9.07-26.85-37.39-26.83c-12.56,0.01-25.12,0.25-37.68-0.01
		c-7.26-0.15-11.16,2.82-12.79,9.95c-1.52,6.67-4.48,13.03-5.81,19.72c-2.27,11.38-8.36,14.87-19.33,11
		c-1.51-5.99,0.92-11.15,2.59-16.44c11.32-35.79,22.92-71.49,33.8-107.4c7-23.1,14.08-31.54,29.31-31.96
		c15.62-0.44,23.42,7.22,30.72,30.38c12.12,38.42,24.22,76.84,36.19,115.31c0.92,2.97,0.67,6.3,0.95,9.31
		C1246.56,320.58,1245.22,319.73,1240.4,303.43z M1222.27,260.27c4.48-3.01,2.9-7.02,1.72-10.89c-6.27-20.42-12.37-40.9-19.03-61.19
		c-1.57-4.78-4.03-10.38-10.57-10.24c-6.84,0.14-9.45,5.43-11.24,11.03c-6.13,19.23-12.21,38.47-18.22,57.74
		c-1.3,4.18-2.59,8.44-1.24,14.09C1182.51,260.8,1201.44,260.8,1222.27,260.27z"/>
	<path class="st0" d="M1574.46,214.34c3.95-12.04,7.44-23.22,11.13-34.32c3.79-11.39,13.86-18.95,25.69-18.53
		c11.83,0.42,20.74,5.21,24.66,17.61c13.45,42.6,27.28,85.09,40.86,127.65c0.96,3.01,1.14,6.27,1.67,9.33
		c-12.95,4.54-16.44,2.9-19.82-8.92c-8.74-30.59-8.74-30.58-40.55-30.53c-9.72,0.02-19.55,0.93-29.13-0.23
		c-12.22-1.48-17.65,4.39-20.58,14.94c-1.51,5.43-4.44,10.59-5.17,16.08c-1.63,12.23-8.66,12.81-19.46,9.68
		C1551.82,282.3,1564.86,249.31,1574.46,214.34z M1591.76,217.29c-3.59,11.12-7.11,22.26-10.81,33.35
		c-2.12,6.37-1.01,10.38,6.65,10.36c16.17-0.03,32.34,0.03,48.51-0.08c6.62-0.05,8.36-3.42,6.32-9.59
		c-6.83-20.65-13.57-41.34-20.15-62.07c-1.79-5.65-3.53-11.31-10.68-11.22c-7.38,0.09-10.59,5.89-11.95,11.85
		C1597.68,198.58,1595.23,207.06,1591.76,217.29z"/>
	<path class="st0" d="M151.47,305.42c0.14,7.6,0.04,13.36-9.13,13.37c-8.97,0.01-9.41-5.45-9.4-12.04
		c0.05-43.77,0.06-87.54-0.02-131.3c-0.01-6.73,0.58-11.88,9.56-11.73c9.26,0.15,9.01,5.99,9,12.32
		c-0.03,14.99,0.45,30.01-0.14,44.98c-0.38,9.63,2.22,13.91,12.8,13.55c21.03-0.71,42.11-0.54,63.16-0.05
		c9.35,0.22,13.16-2.75,12.8-12.49c-0.59-15.78-0.15-31.6-0.12-47.41c0.01-5.43-0.17-10.66,7.81-10.75
		c7.66-0.08,8.37,4.51,8.37,10.31c-0.04,44.58-0.02,89.16-0.04,133.74c0,5.44,0.08,10.66-7.85,10.78c-8.8,0.13-8.28-5.76-8.3-11.53
		c-0.04-15.4-0.32-30.81,0.07-46.2c0.2-7.94-2.88-10.76-10.68-10.65c-22.67,0.3-45.35,0.27-68.02,0.02
		c-7.38-0.08-10.05,2.93-9.9,10.15C151.72,275.06,151.49,289.65,151.47,305.42z"/>
	<path class="st0" d="M1361.33,267c-16.76,4.22-32.89,5.29-49.08,4.64c-9.4-0.37-13.27,3.12-12.58,12.73
		c0.61,8.46,0.01,17.01,0.07,25.52c0.04,6.02-2.56,8.87-8.81,8.72c-6.2-0.15-7.21-3.88-7.21-8.86c0.03-45.79,0.01-91.58,0.05-137.36
		c0-3.75,0.29-8.2,5.17-8.12c26.01,0.47,52.07-3.99,77.61,7.31c33.94,15.01,39.46,68.64,5.21,89.76
		C1368.67,263.24,1365.44,264.93,1361.33,267z M1299.95,186.68c-0.05,19.03,0.1,38.06-0.24,57.09c-0.14,7.65,2.55,11.36,10.48,11.02
		c11.31-0.48,22.72,0.13,33.93-1.1c26.73-2.94,40.53-31.57,26.79-54.62c-9.68-16.24-26.41-17.74-42.39-18.56
		C1319.28,180.02,1308.46,175.4,1299.95,186.68z"/>
	<path class="st0" d="M8.52,284.34c5.31-4.94,8.37-2.5,11.37,1.69c12.3,17.16,29.81,19.33,48.83,16.48
		c12.44-1.86,23.54-13.27,24.95-25.08c1.12-9.44-6.08-17.54-19.53-22.97c-10.93-4.42-22.54-6.05-33.81-9.07
		c-26.62-7.14-33.95-19.32-35.42-40.16c-1.39-19.67,17.48-38.19,38.94-41.69c23.91-3.9,44.03,1.9,58.56,22.42
		c3,4.23,5.49,8.59-0.64,12.26c-4.94,2.96-8.66,3.49-13.34-2.16c-16.26-19.64-41.23-22.51-57.58-7.56
		c-12.55,11.48-10.42,28.29,4.66,36c12.37,6.33,26.05,8.44,39.32,11.81c25.41,6.46,36.46,19.81,35.31,43.04
		c-1.05,21.26-16.38,36.18-40.49,39.56c-24.64,3.45-46.91,0.3-62.45-22.03C4.3,292.71,1.2,288.53,8.52,284.34z"/>
	<path class="st0" d="M1059.4,177.82c-30.2,6.9-46.96,25.67-52.96,54.57c-4.06,19.53,8.26,52.99,32.51,65.43
		c23.28,11.94,48.29,8.35,66.55-10.71c1.4-1.46,2.69-3.03,4.06-4.52c4.79-5.24,9.45-3.04,13.9,0.42c5.24,4.09,1.99,7.56-0.88,11.24
		c-33.14,42.43-103.93,32.42-126.17-16.73c-21.38-47.25,2.81-95.64,41.95-111.38c32.27-12.98,72.94,0.38,88.15,30.61
		c-6.91,7.9-13.08,8.28-20.62-0.18C1093.93,183.14,1078.34,177.28,1059.4,177.82z"/>
	<path class="st0" d="M1496.3,318.68c-10-0.77-8.06-7.66-8.08-12.91c-0.16-36.92-0.51-73.84,0.12-110.74
		c0.2-11.7-3.41-16.3-15.18-15.13c-7.62,0.76-15.39,0.04-23.09,0.06c-5.45,0.01-8.08-2.37-8.14-8.06c-0.05-5.73,2.54-8.07,8.03-8.06
		c32.43,0.04,64.85,0.04,97.28,0.02c5.5,0,8.06,2.4,8.01,8.1c-0.05,5.75-2.82,7.98-8.22,7.97c-9.32-0.02-18.68,0.59-27.96-0.01
		c-9.62-0.62-12.62,3.1-12.52,12.62c0.43,38.13,0.14,76.26,0.21,114.4C1506.78,313.51,1506.53,319.51,1496.3,318.68z"/>
	<path class="st0" d="M1785.22,318.74c-23.46,0.01-45.75,0.12-68.05-0.04c-13.35-0.1-17.36-4.06-17.41-17.54
		c-0.14-41.79-0.03-83.58-0.07-125.37c-0.01-6.39-0.2-12.21,9.12-12.06c9.03,0.14,9.3,5.68,9.29,12.22
		c-0.06,35.3-0.05,70.6-0.06,105.9c-0.01,20.68-0.01,20.68,20.06,20.69c15.81,0.01,31.62-0.02,47.43,0.04
		c4.98,0.02,9.94,0,10.42,7.08C1796.44,316.81,1792.71,319.02,1785.22,318.74z"/>
	<path class="st0" d="M1430.33,271.69c-0.08,13.38-0.15,25.54-0.25,37.71c-0.05,6.32-2.63,9.5-9.58,9.43
		c-7.7-0.08-8.16-4.47-8.15-10.35c0.08-44.61,0.1-89.21-0.13-133.82c-0.03-6.43,0-11.09,8.49-10.98c7.76,0.1,9.58,3.97,9.56,10.7
		C1430.19,206.4,1430.29,238.44,1430.33,271.69z"/>
	<path class="st0" d="M290.93,237.6c0-24.68,0-48.15,0-71.29c14.57-4.23,16.29-3.23,16.32,9.9c0.11,43.42-0.21,86.85,0.2,130.27
		c0.11,11.83-4.87,14.17-16.52,10.59C290.93,291.28,290.93,265.05,290.93,237.6z"/>
</g>
</svg>
