<?xml version="1.0" encoding="utf-8"?>
<!-- Generator: Adobe Adobe Illustrator 24.2.0, SVG Export Plug-In . SVG Version: 6.00 Build 0)  -->
<svg version="1.1" id="Layer_1" xmlns="http://www.w3.org/2000/svg" xmlns:xlink="http://www.w3.org/1999/xlink" x="0px" y="0px"
	 width="1800px" height="600px" viewBox="0 0 1800 600" style="enable-background:new 0 0 1800 600;" xml:space="preserve">
<style type="text/css">
	.st0{fill:#FFFFFF;}
</style>
<g>
	<path class="st0" d="M180.82,270.53c-4.94,6.27-9.36,11.67-14.26,17.65c7.09,16.08,14.18,32.19,21.89,49.67
		c-10.56,4.53-20.99,9.01-32.37,13.89c-10.62-4.33-21.25-8.67-33.66-13.73c7.04-16.38,13.95-32.45,21.44-49.88
		c-23.49-28.93-47.54-58.57-72.67-89.53c27.8-27.52,55.51-54.95,84.45-83.6c28.73,28.59,56.08,55.82,84.02,83.62
		C219.82,222.8,200.58,246.23,180.82,270.53z"/>
	<path class="st0" d="M221.71,471.74c-4.32,3.9-7.82,7.15-14.41,13.26c0-53.92,0-103.55,0-156c35.18,24.86,68.32,48.27,102.7,72.57
		C280.22,425.23,251.37,448.15,221.71,471.74z"/>
	<path class="st0" d="M37.32,375.63c21.95-15.47,43.04-30.33,66.42-46.8c0,52.27,0,101.87,0,148.91
		C70.55,453.47,35.91,428.17,0,401.92C13.02,392.75,24.74,384.5,37.32,375.63z"/>
	<path class="st0" d="M278.58,237.36c5.9,6.22,11.05,11.73,16.52,17.59c-35.71,18.13-74.47,27.63-120.11,30.7
		c23.08-28.09,44.97-54.73,68.05-82.81C255.36,214.82,266.59,225.73,278.58,237.36z"/>
	<path class="st0" d="M89.02,229.43c15.5,18.73,30.38,36.66,46.44,56.01c-44.73-2.49-83.18-12.76-120.81-30.51
		c16.95-16.95,33.99-33.98,52.25-52.24C74.8,212.23,81.6,220.43,89.02,229.43z"/>
	<path class="st0" d="M271.92,368.48c-17.83-12.62-34.77-24.65-51.71-36.68c0.37-0.83,0.74-1.67,1.11-2.5
		c22.87,2.98,45.74,5.96,70.34,9.17c5.77,17.68,11.48,35.2,17.19,52.72c-0.9,0.47-1.8,0.94-2.71,1.41
		C295.03,384.76,283.92,376.92,271.92,368.48z"/>
	<path class="st0" d="M47.07,362.58c-14.98,10.48-29.09,20.35-46.88,32.8c7.25-21.28,13.22-38.78,19.42-56.96
		c23.31-3.1,45.82-6.1,68.34-9.09c0.56,0.83,1.11,1.66,1.67,2.49C75.72,341.87,61.83,351.92,47.07,362.58z"/>
	<path class="st0" d="M81.62,180.97c-4.22,4.53-7.72,8.35-12.83,13.91c-7.12-8.14-13.42-15.35-21.08-24.11
		c29.52-16.23,58.82-32.34,88.11-48.45c0.94,0.69,1.87,1.38,2.81,2.06C119.87,143.01,101.1,161.63,81.62,180.97z"/>
	<path class="st0" d="M214.09,166.3c-14.48-14.53-28.22-28.34-41.96-42.15c0.78-0.67,1.55-1.34,2.33-2.02
		c29.26,16.1,58.52,32.21,88.54,48.73c-7.06,8.22-13.11,15.27-20.33,23.67C232.89,184.86,223.86,175.94,214.09,166.3z"/>
	<path class="st0" d="M21.08,231.14c7.73-18.6,15.09-36.27,23.64-56.8c7.83,9.38,13.6,16.31,19.86,23.81
		c-15.71,15.57-31.24,30.96-46.76,46.35c-0.74-0.17-1.49-0.35-2.23-0.52C17.3,240.01,19,236.04,21.08,231.14z"/>
	<path class="st0" d="M287.35,224.98c2.76,6.58,5.08,12.22,7.4,17.85c-0.73,0.35-1.46,0.69-2.19,1.04
		c-15.14-15.11-30.27-30.23-45.78-45.71c6.42-7.71,12.29-14.74,19.94-23.92C274.14,192.52,280.53,208.28,287.35,224.98z"/>
	<path class="st0" d="M29.11,290.96c4.56,6.76,8.57,12.67,13.47,19.86c-11.24,1.63-20.6,2.98-31.53,4.56c0-16.76,0-32.24,0-47.73
		c0.71-0.36,1.42-0.73,2.12-1.09C18.31,274.41,23.44,282.26,29.11,290.96z"/>
	<path class="st0" d="M292.07,274.6c2.43-3.23,4.34-5.66,8.14-10.49c0,18.16,0,33.56,0,50.79c-10.2-1.16-20.06-2.27-32.33-3.66
		C276.27,298.54,283.91,286.97,292.07,274.6z"/>
	<path class="st0" d="M254.75,276.4c12.26-4.63,23.39-8.8,34.52-12.98c0.82,0.63,1.65,1.27,2.47,1.9
		c-9.28,13.57-18.56,27.14-27.84,40.71c-1.4-0.04-2.8-0.09-4.2-0.13C257.68,296.22,255.65,286.54,254.75,276.4z"/>
	<path class="st0" d="M39.26,295.73c-7.09-10.65-13.65-20.49-22.66-33.99c16.67,6.19,29.09,10.8,42.67,15.84
		c-3.29,9.62-6.33,18.49-10.18,29.75C44.83,302.39,42.31,299.46,39.26,295.73z"/>
	<path class="st0" d="M263.54,316.31c5.99,4.91,11.2,9.19,19.41,15.94c-23.92-2.94-43.64-5.36-63.36-7.78
		c-0.22-1.03-0.44-2.06-0.66-3.09C233.54,319.47,248.14,317.58,263.54,316.31z"/>
	<path class="st0" d="M32.12,328.78c6.19-5.35,11.92-9.97,18.64-15.39c13.61,3.05,27.13,6.07,40.65,9.1
		c-0.1,1.02-0.19,2.04-0.29,3.06C71.3,326.87,51.47,328.19,32.12,328.78z"/>
	<path class="st0" d="M24.09,328.52c-4.96-1.06-9.21-2.78-13.47-4.51c0.54-1.19,1.08-2.38,1.62-3.57c7-1.17,14-2.34,25.12-4.2
		C31.38,321.78,28.08,324.82,24.09,328.52z"/>
	<path class="st0" d="M287.79,329.51c-4.4-3.76-8-6.93-14.46-12.61c10.53,1.4,17.44,2.32,29.43,3.91
		C296.02,325.22,292.31,327.66,287.79,329.51z"/>
</g>
<g>
	<path class="st0" d="M1630.66,296.85c0-32.41,0-64.35,0-96.3c0.33-0.18,0.65-0.36,0.98-0.55c42.18,44.57,84.36,89.15,126.54,133.72
		c0.45-0.1,0.9-0.2,1.35-0.3c0-1.85,0-3.7,0-5.55c0-36.89,0-73.78,0-110.67c0-5.98,0.01-5.99,6.03-6c6.49-0.01,12.97,0,19.79,0
		c0,62.87,0,125.21,0,188.81c-42.92-45.36-85.09-89.92-128.28-135.56c-0.19,3.34-0.4,5.22-0.4,7.09
		c-0.02,37.35-0.1,74.7,0.09,112.05c0.02,4.7-1.24,6.1-5.84,5.82c-6.59-0.4-13.23-0.1-20.27-0.1
		C1630.66,358.17,1630.66,327.74,1630.66,296.85z"/>
	<path class="st0" d="M1104.52,366.66c-10.89-15.67-21.59-31.07-32.29-46.47c-0.7-1-1.24-2.29-2.2-2.87
		c-1.06-0.64-2.62-1.04-3.75-0.74c-0.7,0.18-1.4,1.83-1.46,2.86c-0.19,3.36-0.09,6.73-0.09,10.1c0,18.21-0.11,36.43,0.08,54.64
		c0.04,4-1.05,5.44-5.11,5.21c-5.74-0.32-11.51-0.27-17.25-0.01c-3.61,0.16-4.67-1.16-4.64-4.73c0.15-15.92,0.06-31.83,0.06-47.75
		c0-39.94,0.07-79.89-0.09-119.83c-0.02-4.57,1.1-6.17,5.81-5.95c15.71,0.71,31.53,0.13,47.14,1.71
		c24.59,2.48,41.16,17.45,44.94,39.8c4.55,26.9-8.97,52.63-34.01,59.96c-0.85,0.25-1.66,0.67-3.15,1.28
		c17.97,24.94,35.73,49.6,54.02,74.99c-2.07,0.21-3.32,0.44-4.58,0.45c-7.87,0.03-15.75-0.13-23.62,0.09
		c-3.13,0.09-4.95-1.07-6.63-3.63C1113.53,379.37,1109.06,373.19,1104.52,366.66z M1068.89,236.3c-2.28-0.14-4.19-0.05-4.17,3.18
		c0.07,16.81-0.01,33.63,0.14,50.44c0.01,1,1.56,2.82,2.43,2.85c10.15,0.27,20.33,0.22,29.78-4.31c11-5.26,14.75-14.73,14.31-26.34
		c-0.42-11.07-5.52-19.43-16.21-22.33C1086.98,237.56,1078.24,237.39,1068.89,236.3z"/>
	<path class="st0" d="M507.84,358.8c7.94-8.72,10.1-18.74,7.45-29.67c-2.32-9.54-9.68-15.02-17.74-19.13
		c-8.9-4.54-18.28-8.11-27.37-12.28c-8.21-3.77-15.67-8.71-21.56-15.72c-15.66-18.65-12.96-45.65,6.02-62.28
		c22.31-19.55,63.75-18.98,83.13,17.52c-6.79,4.11-13.61,8.25-20.55,12.45c-2.71-3.28-5.03-6.46-7.72-9.27
		c-10.63-11.09-31.41-10.01-40.99,2.02c-5.86,7.36-5.57,18.73,1.39,25.03c3.86,3.5,8.64,6.15,13.36,8.44
		c6.12,2.98,12.77,4.85,18.85,7.89c7.41,3.71,14.82,7.62,21.6,12.35c27.89,19.46,22.38,61.19,4.1,79.01
		c-19.04,18.56-50.41,22.49-72.48,7.72c-15.05-10.08-22.02-25.35-25.16-43.13c8.97-1.97,17.48-3.84,26.61-5.85
		c1.62,15.87,7.08,28.68,23.94,32.46C490.92,368.65,499.92,366.21,507.84,358.8z"/>
	<path class="st0" d="M633.22,240.81c0-8.88,0.03-17.29-0.02-25.71c-0.01-2.21,0.21-3.99,3.06-3.9c18.87,0.58,37.77-1.37,56.61,2.08
		c22.21,4.07,36.58,25.4,38.43,43.04c4.04,38.45-22.23,57.76-51.48,60.86c-4.95,0.52-9.99,0.44-14.97,0.19
		c-3.86-0.19-4.89,1.31-4.87,5.03c0.14,20.5-0.03,41.01,0.15,61.51c0.04,4.1-0.95,5.76-5.28,5.48c-5.73-0.37-11.51-0.25-17.25-0.03
		c-3.33,0.13-4.53-0.93-4.46-4.41c0.2-9.79,0.07-19.58,0.07-29.38C633.22,317.47,633.22,279.37,633.22,240.81z M660.05,256.89
		c0,10.4,0.01,20.8,0,31.19c0,2.26-0.02,4.58,3.17,4.26c8.69-0.86,17.59-0.88,25.99-2.96c11.64-2.88,17.4-11.58,17.96-24.05
		c0.56-12.68-4.72-21.22-16.06-25.97c-9.07-3.8-18.63-3.63-28.16-3.41c-0.99,0.02-2.68,2.23-2.75,3.5
		C659.89,244.95,660.06,250.46,660.05,256.89z"/>
	<path class="st0" d="M1405.47,330.07c19.85-43.16,39.57-85.99,59.84-130c28.19,63.41,55.92,125.77,84.13,189.24
		c-5.14,0-9.44,0.05-13.73-0.01c-4.98-0.08-11.14,1.51-14.6-0.88c-3.64-2.51-4.83-8.8-6.85-13.55
		c-15.66-36.66-31.26-73.34-46.88-110.01c-0.48-1.12-0.98-2.22-2.05-4.63c-1.61,3.38-2.82,5.83-3.95,8.33
		c-17.53,38.66-35.1,77.3-52.49,116.03c-1.63,3.62-3.55,4.99-7.48,4.82c-7.35-0.33-14.73-0.09-23.14-0.09
		C1387.57,369.08,1396.46,349.74,1405.47,330.07z"/>
	<path class="st0" d="M842.61,261.78c9.41-20.34,18.68-40.36,28.58-61.73c28.1,63.62,55.62,125.93,83.59,189.25
		c-5.09,0-9.63-0.59-13.96,0.12c-10.86,1.76-16.32-2.37-20.61-12.99c-14.85-36.8-30.98-73.07-46.63-109.54
		c-0.81-1.89-1.74-3.73-3.08-6.59c-4.33,9.46-8.22,17.87-12.04,26.31c-14.88,32.8-29.78,65.6-44.52,98.46
		c-1.39,3.09-2.97,4.42-6.4,4.31c-7.68-0.24-15.36-0.08-24.05-0.08C803.4,346.37,822.94,304.23,842.61,261.78z"/>
	<path class="st0" d="M1201.49,213.72c-0.65-0.99-1.12-1.73-1.86-2.91c48.05,0,95.6,0,144,0c-6.12,8.34-11.75,16.22-17.68,23.86
		c-0.76,0.98-3.05,1.03-4.63,1.05c-10.45,0.09-20.9,0.23-31.35-0.04c-4.27-0.11-5.33,1.37-5.32,5.53
		c0.13,47.45,0.02,94.91,0.19,142.36c0.02,4.66-1.17,6.13-5.81,5.85c-6.76-0.41-13.56-0.11-20.89-0.11c0-2.47,0-4.41,0-6.35
		c0-47.15-0.07-94.29,0.11-141.44c0.02-4.74-1.27-6-5.83-5.85c-10.14,0.33-20.29,0.01-30.44,0.16c-3,0.04-5.05-0.77-6.84-3.37
		C1210.83,226.17,1206.18,220.11,1201.49,213.72z"/>
</g>
</svg>
