<?xml version="1.0" encoding="UTF-8" standalone="no"?>
<!DOCTYPE svg PUBLIC "-//W3C//DTD SVG 1.1//EN" "http://www.w3.org/Graphics/SVG/1.1/DTD/svg11.dtd">
<svg width="100%" height="100%" viewBox="0 0 260 495" version="1.1" xmlns="http://www.w3.org/2000/svg" xmlns:xlink="http://www.w3.org/1999/xlink" xml:space="preserve" xmlns:serif="http://www.serif.com/" style="fill-rule:evenodd;clip-rule:evenodd;stroke-linecap:round;stroke-linejoin:round;">
    <g transform="matrix(1,0,0,1,-263.31,0)">
        <g id="Layer_2">
            <g id="Layer_1-2">
                <path d="M3.31,457.81C68.16,457.81 68.16,490.91 133,490.91C197.84,490.91 197.85,457.81 262.7,457.81C327.55,457.81 327.54,490.91 392.39,490.91C457.24,490.91 457.24,457.81 522.09,457.81C586.94,457.81 586.93,490.91 651.78,490.91C716.63,490.91 716.63,457.81 781.49,457.81C846.35,457.81 846.34,490.91 911.19,490.91C976.04,490.91 976.04,457.81 1040.89,457.81C1105.74,457.81 1105.74,490.91 1170.58,490.91C1235.42,490.91 1235.43,457.81 1300.28,457.81C1365.13,457.81 1365.13,490.91 1429.98,490.91C1494.83,490.91 1494.83,457.81 1559.68,457.81C1624.53,457.81 1624.53,490.91 1689.38,490.91C1754.23,490.91 1754.23,457.81 1819.08,457.81C1883.93,457.81 1883.93,490.91 1948.78,490.91C2013.63,490.91 2013.63,457.81 2078.48,457.81C2143.33,457.81 2143.33,490.91 2208.18,490.91C2273.03,490.91 2273.03,457.81 2337.88,457.81C2402.73,457.81 2402.73,490.91 2467.58,490.91C2532.43,490.91 2532.43,457.81 2597.29,457.81C2662.15,457.81 2662.14,490.91 2726.99,490.91C2791.84,490.91 2791.84,457.81 2856.69,457.81C2921.54,457.81 2921.54,490.91 2986.4,490.91C3051.26,490.91 3051.24,457.81 3116.09,457.81C3180.94,457.81 3180.94,490.91 3245.79,490.91C3310.64,490.91 3310.64,457.81 3375.49,457.81C3440.34,457.81 3440.34,490.91 3505.2,490.91C3570.06,490.91 3570.05,457.81 3634.9,457.81C3699.75,457.81 3699.75,490.91 3764.61,490.91C3829.47,490.91 3829.46,457.81 3894.31,457.81C3959.16,457.81 3959.17,490.91 4024.02,490.91C4088.87,490.91 4088.87,457.81 4153.73,457.81C4218.59,457.81 4218.58,490.91 4283.44,490.91C4348.3,490.91 4348.29,457.81 4413.15,457.81C4478.01,457.81 4478.01,490.91 4542.87,490.91" style="fill:none;fill-rule:nonzero;stroke:rgb(109,17,234);stroke-width:6.62px;"/>
                <path d="M3.31,425.34C68.16,425.34 68.16,458.44 133,458.44C197.84,458.44 197.85,425.34 262.7,425.34C327.55,425.34 327.54,458.44 392.39,458.44C457.24,458.44 457.24,425.34 522.09,425.34C586.94,425.34 586.93,458.44 651.78,458.44C716.63,458.44 716.63,425.34 781.49,425.34C846.35,425.34 846.34,458.44 911.19,458.44C976.04,458.44 976.04,425.34 1040.89,425.34C1105.74,425.34 1105.74,458.44 1170.58,458.44C1235.42,458.44 1235.43,425.34 1300.28,425.34C1365.13,425.34 1365.13,458.44 1429.98,458.44C1494.83,458.44 1494.83,425.34 1559.68,425.34C1624.53,425.34 1624.53,458.44 1689.38,458.44C1754.23,458.44 1754.23,425.34 1819.08,425.34C1883.93,425.34 1883.93,458.44 1948.78,458.44C2013.63,458.44 2013.63,425.34 2078.48,425.34C2143.33,425.34 2143.33,458.44 2208.18,458.44C2273.03,458.44 2273.03,425.34 2337.88,425.34C2402.73,425.34 2402.73,458.44 2467.58,458.44C2532.43,458.44 2532.43,425.34 2597.29,425.34C2662.15,425.34 2662.14,458.44 2726.99,458.44C2791.84,458.44 2791.84,425.34 2856.69,425.34C2921.54,425.34 2921.54,458.44 2986.4,458.44C3051.26,458.44 3051.24,425.34 3116.09,425.34C3180.94,425.34 3180.94,458.44 3245.79,458.44C3310.64,458.44 3310.64,425.34 3375.49,425.34C3440.34,425.34 3440.34,458.44 3505.2,458.44C3570.06,458.44 3570.05,425.34 3634.9,425.34C3699.75,425.34 3699.75,458.44 3764.61,458.44C3829.47,458.44 3829.46,425.34 3894.31,425.34C3959.16,425.34 3959.17,458.44 4024.02,458.44C4088.87,458.44 4088.87,425.34 4153.73,425.34C4218.59,425.34 4218.58,458.44 4283.44,458.44C4348.3,458.44 4348.29,425.34 4413.15,425.34C4478.01,425.34 4478.01,458.44 4542.87,458.44" style="fill:none;fill-rule:nonzero;stroke:rgb(109,17,234);stroke-width:6.62px;"/>
                <path d="M3.31,392.88C68.16,392.88 68.16,426 133,426C197.84,426 197.85,392.9 262.7,392.9C327.55,392.9 327.54,426 392.39,426C457.24,426 457.24,392.9 522.09,392.9C586.94,392.9 586.93,426 651.78,426C716.63,426 716.63,392.9 781.49,392.9C846.35,392.9 846.34,426 911.19,426C976.04,426 976.04,392.9 1040.89,392.9C1105.74,392.9 1105.74,426 1170.58,426C1235.42,426 1235.43,392.9 1300.28,392.9C1365.13,392.9 1365.13,426 1430,426C1494.87,426 1494.85,392.9 1559.7,392.9C1624.55,392.9 1624.55,426 1689.4,426C1754.25,426 1754.25,392.9 1819.1,392.9C1883.95,392.9 1883.95,426 1948.8,426C2013.65,426 2013.65,392.9 2078.5,392.9C2143.35,392.9 2143.35,426 2208.2,426C2273.05,426 2273.05,392.9 2337.9,392.9C2402.75,392.9 2402.75,426 2467.6,426C2532.45,426 2532.45,392.9 2597.31,392.9C2662.17,392.9 2662.14,426 2727,426C2791.86,426 2791.85,392.9 2856.7,392.9C2921.55,392.9 2921.54,426 2986.4,426C3051.26,426 3051.24,392.9 3116.09,392.9C3180.94,392.9 3180.94,426 3245.79,426C3310.64,426 3310.64,392.9 3375.49,392.9C3440.34,392.9 3440.34,426 3505.2,426C3570.06,426 3570.05,392.9 3634.9,392.9C3699.75,392.9 3699.75,426 3764.61,426C3829.47,426 3829.46,392.9 3894.31,392.9C3959.16,392.9 3959.17,426 4024,426C4088.83,426 4088.85,392.9 4153.71,392.9C4218.57,392.9 4218.56,426 4283.42,426C4348.28,426 4348.27,392.9 4413.13,392.9C4477.99,392.9 4478,426 4542.87,426" style="fill:none;fill-rule:nonzero;stroke:rgb(109,17,234);stroke-width:6.62px;"/>
                <path d="M3.31,360.41C68.16,360.41 68.16,393.51 133,393.51C197.84,393.51 197.85,360.41 262.7,360.41C327.55,360.41 327.54,393.51 392.39,393.51C457.24,393.51 457.24,360.41 522.09,360.41C586.94,360.41 586.93,393.51 651.78,393.51C716.63,393.51 716.63,360.41 781.49,360.41C846.35,360.41 846.34,393.51 911.19,393.51C976.04,393.51 976.04,360.41 1040.89,360.41C1105.74,360.41 1105.74,393.51 1170.58,393.51C1235.42,393.51 1235.43,360.41 1300.28,360.41C1365.13,360.41 1365.13,393.51 1429.98,393.51C1494.83,393.51 1494.83,360.41 1559.68,360.41C1624.53,360.41 1624.53,393.51 1689.38,393.51C1754.23,393.51 1754.23,360.41 1819.08,360.41C1883.93,360.41 1883.93,393.51 1948.78,393.51C2013.63,393.51 2013.63,360.41 2078.48,360.41C2143.33,360.41 2143.33,393.51 2208.18,393.51C2273.03,393.51 2273.03,360.41 2337.88,360.41C2402.73,360.41 2402.73,393.51 2467.58,393.51C2532.43,393.51 2532.43,360.41 2597.29,360.41C2662.15,360.41 2662.14,393.51 2726.99,393.51C2791.84,393.51 2791.84,360.41 2856.69,360.41C2921.54,360.41 2921.54,393.51 2986.4,393.51C3051.26,393.51 3051.24,360.41 3116.09,360.41C3180.94,360.41 3180.94,393.51 3245.79,393.51C3310.64,393.51 3310.64,360.41 3375.49,360.41C3440.34,360.41 3440.34,393.51 3505.2,393.51C3570.06,393.51 3570.05,360.41 3634.9,360.41C3699.75,360.41 3699.75,393.51 3764.61,393.51C3829.47,393.51 3829.46,360.41 3894.31,360.41C3959.16,360.41 3959.17,393.51 4024.02,393.51C4088.87,393.51 4088.87,360.41 4153.73,360.41C4218.59,360.41 4218.58,393.51 4283.44,393.51C4348.3,393.51 4348.29,360.41 4413.15,360.41C4478.01,360.41 4478.01,393.51 4542.87,393.51" style="fill:none;fill-rule:nonzero;stroke:rgb(109,17,234);stroke-width:6.62px;"/>
                <path d="M3.31,328C68.16,328 68.16,361.1 133,361.1C197.84,361.1 197.85,328 262.7,328C327.55,328 327.54,361.1 392.39,361.1C457.24,361.1 457.24,328 522.09,328C586.94,328 586.93,361.1 651.78,361.1C716.63,361.1 716.63,328 781.49,328C846.35,328 846.34,361.1 911.19,361.1C976.04,361.1 976,328 1040.89,328C1105.78,328 1105.74,361.1 1170.58,361.1C1235.42,361.1 1235.43,328 1300.28,328C1365.13,328 1365.13,361.1 1429.98,361.1C1494.83,361.1 1494.83,328 1559.68,328C1624.53,328 1624.53,361.1 1689.38,361.1C1754.23,361.1 1754.23,328 1819.08,328C1883.93,328 1883.93,361.1 1948.78,361.1C2013.63,361.1 2013.63,328 2078.48,328C2143.33,328 2143.33,361.1 2208.18,361.1C2273.03,361.1 2273,328 2337.88,328C2402.76,328 2402.73,361.1 2467.58,361.1C2532.43,361.1 2532.43,328 2597.29,328C2662.15,328 2662.14,361.1 2726.99,361.1C2791.84,361.1 2791.84,328 2856.69,328C2921.54,328 2921.54,361.1 2986.4,361.1C3051.26,361.1 3051.24,328 3116.09,328C3180.94,328 3180.94,361.1 3245.79,361.1C3310.64,361.1 3310.64,328 3375.49,328C3440.34,328 3440.34,361.1 3505.2,361.1C3570.06,361.1 3570.05,328 3634.9,328C3699.75,328 3699.75,361.1 3764.61,361.1C3829.47,361.1 3829.46,328 3894.31,328C3959.16,328 3959.17,361.1 4024.02,361.1C4088.87,361.1 4088.87,328 4153.73,328C4218.59,328 4218.58,361.1 4283.44,361.1C4348.3,361.1 4348.29,328 4413.15,328C4478.01,328 4478.01,361.1 4542.87,361.1" style="fill:none;fill-rule:nonzero;stroke:rgb(109,17,234);stroke-width:6.62px;"/>
                <path d="M3.31,295.49C68.16,295.49 68.16,328.59 133,328.59C197.84,328.59 197.85,295.49 262.7,295.49C327.55,295.49 327.54,328.59 392.39,328.59C457.24,328.59 457.24,295.49 522.09,295.49C586.94,295.49 586.93,328.59 651.78,328.59C716.63,328.59 716.63,295.49 781.49,295.49C846.35,295.49 846.34,328.59 911.19,328.59C976.04,328.59 976.04,295.49 1040.89,295.49C1105.74,295.49 1105.74,328.59 1170.58,328.59C1235.42,328.59 1235.43,295.49 1300.28,295.49C1365.13,295.49 1365.13,328.59 1429.98,328.59C1494.83,328.59 1494.83,295.49 1559.68,295.49C1624.53,295.49 1624.53,328.59 1689.38,328.59C1754.23,328.59 1754.23,295.49 1819.08,295.49C1883.93,295.49 1883.93,328.59 1948.78,328.59C2013.63,328.59 2013.63,295.49 2078.48,295.49C2143.33,295.49 2143.33,328.59 2208.18,328.59C2273.03,328.59 2273.03,295.49 2337.88,295.49C2402.73,295.49 2402.73,328.59 2467.58,328.59C2532.43,328.59 2532.43,295.49 2597.29,295.49C2662.15,295.49 2662.14,328.59 2726.99,328.59C2791.84,328.59 2791.84,295.49 2856.69,295.49C2921.54,295.49 2921.54,328.59 2986.4,328.59C3051.26,328.59 3051.24,295.49 3116.09,295.49C3180.94,295.49 3180.94,328.59 3245.79,328.59C3310.64,328.59 3310.64,295.49 3375.49,295.49C3440.34,295.49 3440.34,328.59 3505.2,328.59C3570.06,328.59 3570.05,295.49 3634.9,295.49C3699.75,295.49 3699.75,328.59 3764.61,328.59C3829.47,328.59 3829.46,295.49 3894.31,295.49C3959.16,295.49 3959.17,328.59 4024.02,328.59C4088.87,328.59 4088.87,295.49 4153.73,295.49C4218.59,295.49 4218.58,328.59 4283.44,328.59C4348.3,328.59 4348.29,295.49 4413.15,295.49C4478.01,295.49 4478.01,328.59 4542.87,328.59" style="fill:none;fill-rule:nonzero;stroke:rgb(109,17,234);stroke-width:6.62px;"/>
                <path d="M3.31,263C68.16,263 68.16,296.1 133,296.1C197.84,296.1 197.85,263 262.7,263C327.55,263 327.54,296.1 392.39,296.1C457.24,296.1 457.24,263 522.09,263C586.94,263 586.93,296.1 651.78,296.1C716.63,296.1 716.63,263 781.49,263C846.35,263 846.34,296.1 911.19,296.1C976.04,296.1 976,263 1040.89,263C1105.78,263 1105.74,296.1 1170.58,296.1C1235.42,296.1 1235.43,263 1300.28,263C1365.13,263 1365.13,296.1 1429.98,296.1C1494.83,296.1 1494.83,263 1559.68,263C1624.53,263 1624.53,296.1 1689.38,296.1C1754.23,296.1 1754.23,263 1819.08,263C1883.93,263 1883.93,296.1 1948.78,296.1C2013.63,296.1 2013.63,263 2078.48,263C2143.33,263 2143.33,296.1 2208.18,296.1C2273.03,296.1 2273,263 2337.88,263C2402.76,263 2402.73,296.1 2467.58,296.1C2532.43,296.1 2532.43,263 2597.29,263C2662.15,263 2662.14,296.1 2726.99,296.1C2791.84,296.1 2791.84,263 2856.69,263C2921.54,263 2921.54,296.1 2986.4,296.1C3051.26,296.1 3051.24,263 3116.09,263C3180.94,263 3180.94,296.1 3245.79,296.1C3310.64,296.1 3310.64,263 3375.49,263C3440.34,263 3440.34,296.1 3505.2,296.1C3570.06,296.1 3570.05,263 3634.9,263C3699.75,263 3699.75,296.1 3764.61,296.1C3829.47,296.1 3829.46,263 3894.31,263C3959.16,263 3959.17,296.1 4024.02,296.1C4088.87,296.1 4088.87,263 4153.73,263C4218.59,263 4218.58,296.1 4283.44,296.1C4348.3,296.1 4348.29,263 4413.15,263C4478.01,263 4478.01,296.1 4542.87,296.1" style="fill:none;fill-rule:nonzero;stroke:rgb(109,17,234);stroke-width:6.62px;"/>
                <path d="M3.31,230.56C68.16,230.56 68.16,263.66 133,263.66C197.84,263.66 197.85,230.56 262.7,230.56C327.55,230.56 327.54,263.66 392.39,263.66C457.24,263.66 457.24,230.56 522.09,230.56C586.94,230.56 586.93,263.66 651.78,263.66C716.63,263.66 716.63,230.56 781.49,230.56C846.35,230.56 846.34,263.66 911.19,263.66C976.04,263.66 976.04,230.56 1040.89,230.56C1105.74,230.56 1105.74,263.66 1170.58,263.66C1235.42,263.66 1235.43,230.56 1300.28,230.56C1365.13,230.56 1365.13,263.66 1429.98,263.66C1494.83,263.66 1494.83,230.56 1559.68,230.56C1624.53,230.56 1624.53,263.66 1689.38,263.66C1754.23,263.66 1754.23,230.56 1819.08,230.56C1883.93,230.56 1883.93,263.66 1948.78,263.66C2013.63,263.66 2013.63,230.56 2078.48,230.56C2143.33,230.56 2143.33,263.66 2208.18,263.66C2273.03,263.66 2273.03,230.56 2337.88,230.56C2402.73,230.56 2402.73,263.66 2467.58,263.66C2532.43,263.66 2532.43,230.56 2597.29,230.56C2662.15,230.56 2662.14,263.66 2726.99,263.66C2791.84,263.66 2791.84,230.56 2856.69,230.56C2921.54,230.56 2921.54,263.66 2986.4,263.66C3051.26,263.66 3051.24,230.56 3116.09,230.56C3180.94,230.56 3180.94,263.66 3245.79,263.66C3310.64,263.66 3310.64,230.56 3375.49,230.56C3440.34,230.56 3440.34,263.66 3505.2,263.66C3570.06,263.66 3570.05,230.56 3634.9,230.56C3699.75,230.56 3699.75,263.66 3764.61,263.66C3829.47,263.66 3829.46,230.56 3894.31,230.56C3959.16,230.56 3959.17,263.66 4024.02,263.66C4088.87,263.66 4088.87,230.56 4153.73,230.56C4218.59,230.56 4218.58,263.66 4283.44,263.66C4348.3,263.66 4348.29,230.56 4413.15,230.56C4478.01,230.56 4478.01,263.66 4542.87,263.66" style="fill:none;fill-rule:nonzero;stroke:rgb(109,17,234);stroke-width:6.62px;"/>
                <path d="M3.31,198.09C68.16,198.09 68.16,231.19 133,231.19C197.84,231.19 197.85,198.09 262.7,198.09C327.55,198.09 327.54,231.19 392.39,231.19C457.24,231.19 457.24,198.09 522.09,198.09C586.94,198.09 586.93,231.19 651.78,231.19C716.63,231.19 716.63,198.09 781.49,198.09C846.35,198.09 846.34,231.19 911.19,231.19C976.04,231.19 976.04,198.09 1040.89,198.09C1105.74,198.09 1105.74,231.19 1170.58,231.19C1235.42,231.19 1235.43,198.09 1300.28,198.09C1365.13,198.09 1365.13,231.19 1429.98,231.19C1494.83,231.19 1494.83,198.09 1559.68,198.09C1624.53,198.09 1624.53,231.19 1689.38,231.19C1754.23,231.19 1754.23,198.09 1819.08,198.09C1883.93,198.09 1883.93,231.19 1948.78,231.19C2013.63,231.19 2013.63,198.09 2078.48,198.09C2143.33,198.09 2143.33,231.19 2208.18,231.19C2273.03,231.19 2273.03,198.09 2337.88,198.09C2402.73,198.09 2402.73,231.19 2467.58,231.19C2532.43,231.19 2532.43,198.09 2597.29,198.09C2662.15,198.09 2662.14,231.19 2726.99,231.19C2791.84,231.19 2791.84,198.09 2856.69,198.09C2921.54,198.09 2921.54,231.19 2986.4,231.19C3051.26,231.19 3051.24,198.09 3116.09,198.09C3180.94,198.09 3180.94,231.19 3245.79,231.19C3310.64,231.19 3310.64,198.09 3375.49,198.09C3440.34,198.09 3440.34,231.19 3505.2,231.19C3570.06,231.19 3570.05,198.09 3634.9,198.09C3699.75,198.09 3699.75,231.19 3764.61,231.19C3829.47,231.19 3829.46,198.09 3894.31,198.09C3959.16,198.09 3959.17,231.19 4024.02,231.19C4088.87,231.19 4088.87,198.09 4153.73,198.09C4218.59,198.09 4218.58,231.19 4283.44,231.19C4348.3,231.19 4348.29,198.09 4413.15,198.09C4478.01,198.09 4478.01,231.19 4542.87,231.19" style="fill:none;fill-rule:nonzero;stroke:rgb(109,17,234);stroke-width:6.62px;"/>
                <path d="M3.31,165.63C68.16,165.63 68.16,198.73 133,198.73C197.84,198.73 197.85,165.63 262.7,165.63C327.55,165.63 327.54,198.73 392.39,198.73C457.24,198.73 457.24,165.63 522.09,165.63C586.94,165.63 586.93,198.73 651.78,198.73C716.63,198.73 716.63,165.63 781.49,165.63C846.35,165.63 846.34,198.73 911.19,198.73C976.04,198.73 976.04,165.63 1040.89,165.63C1105.74,165.63 1105.74,198.73 1170.58,198.73C1235.42,198.73 1235.43,165.63 1300.28,165.63C1365.13,165.63 1365.13,198.73 1429.98,198.73C1494.83,198.73 1494.83,165.63 1559.68,165.63C1624.53,165.63 1624.53,198.73 1689.38,198.73C1754.23,198.73 1754.23,165.63 1819.08,165.63C1883.93,165.63 1883.93,198.73 1948.78,198.73C2013.63,198.73 2013.63,165.63 2078.48,165.63C2143.33,165.63 2143.33,198.73 2208.18,198.73C2273.03,198.73 2273.03,165.63 2337.88,165.63C2402.73,165.63 2402.73,198.73 2467.58,198.73C2532.43,198.73 2532.43,165.63 2597.29,165.63C2662.15,165.63 2662.14,198.73 2726.99,198.73C2791.84,198.73 2791.84,165.63 2856.69,165.63C2921.54,165.63 2921.54,198.73 2986.4,198.73C3051.26,198.73 3051.24,165.63 3116.09,165.63C3180.94,165.63 3180.94,198.73 3245.79,198.73C3310.64,198.73 3310.64,165.63 3375.49,165.63C3440.34,165.63 3440.34,198.73 3505.2,198.73C3570.06,198.73 3570.05,165.63 3634.9,165.63C3699.75,165.63 3699.75,198.73 3764.61,198.73C3829.47,198.73 3829.46,165.63 3894.31,165.63C3959.16,165.63 3959.17,198.73 4024.02,198.73C4088.87,198.73 4088.87,165.63 4153.73,165.63C4218.59,165.63 4218.58,198.73 4283.44,198.73C4348.3,198.73 4348.29,165.63 4413.15,165.63C4478.01,165.63 4478.01,198.73 4542.87,198.73" style="fill:none;fill-rule:nonzero;stroke:rgb(109,17,234);stroke-width:6.62px;"/>
                <path d="M3.31,133.17C68.16,133.17 68.16,166.27 133,166.27C197.84,166.27 197.85,133.17 262.7,133.17C327.55,133.17 327.54,166.27 392.39,166.27C457.24,166.27 457.24,133.17 522.09,133.17C586.94,133.17 586.93,166.27 651.78,166.27C716.63,166.27 716.63,133.17 781.49,133.17C846.35,133.17 846.34,166.27 911.19,166.27C976.04,166.27 976.04,133.17 1040.89,133.17C1105.74,133.17 1105.74,166.27 1170.58,166.27C1235.42,166.27 1235.43,133.17 1300.28,133.17C1365.13,133.17 1365.13,166.27 1429.98,166.27C1494.83,166.27 1494.83,133.17 1559.68,133.17C1624.53,133.17 1624.53,166.27 1689.38,166.27C1754.23,166.27 1754.23,133.17 1819.08,133.17C1883.93,133.17 1883.93,166.27 1948.78,166.27C2013.63,166.27 2013.63,133.17 2078.48,133.17C2143.33,133.17 2143.33,166.27 2208.18,166.27C2273.03,166.27 2273.03,133.17 2337.88,133.17C2402.73,133.17 2402.73,166.27 2467.58,166.27C2532.43,166.27 2532.43,133.17 2597.29,133.17C2662.15,133.17 2662.14,166.27 2726.99,166.27C2791.84,166.27 2791.84,133.17 2856.69,133.17C2921.54,133.17 2921.54,166.27 2986.4,166.27C3051.26,166.27 3051.24,133.17 3116.09,133.17C3180.94,133.17 3180.94,166.27 3245.79,166.27C3310.64,166.27 3310.64,133.17 3375.49,133.17C3440.34,133.17 3440.34,166.27 3505.2,166.27C3570.06,166.27 3570.05,133.17 3634.9,133.17C3699.75,133.17 3699.75,166.27 3764.61,166.27C3829.47,166.27 3829.46,133.17 3894.31,133.17C3959.16,133.17 3959.17,166.27 4024.02,166.27C4088.87,166.27 4088.87,133.17 4153.73,133.17C4218.59,133.17 4218.58,166.27 4283.44,166.27C4348.3,166.27 4348.29,133.17 4413.15,133.17C4478.01,133.17 4478.01,166.27 4542.87,166.27" style="fill:none;fill-rule:nonzero;stroke:rgb(109,17,234);stroke-width:6.62px;"/>
                <path d="M3.31,100.7C68.16,100.7 68.16,133.8 133,133.8C197.84,133.8 197.85,100.7 262.7,100.7C327.55,100.7 327.54,133.8 392.39,133.8C457.24,133.8 457.24,100.7 522.09,100.7C586.94,100.7 586.93,133.8 651.78,133.8C716.63,133.8 716.63,100.7 781.49,100.7C846.35,100.7 846.34,133.8 911.19,133.8C976.04,133.8 976.04,100.7 1040.89,100.7C1105.74,100.7 1105.74,133.8 1170.58,133.8C1235.42,133.8 1235.43,100.7 1300.28,100.7C1365.13,100.7 1365.13,133.8 1429.98,133.8C1494.83,133.8 1494.83,100.7 1559.68,100.7C1624.53,100.7 1624.53,133.8 1689.38,133.8C1754.23,133.8 1754.23,100.7 1819.08,100.7C1883.93,100.7 1883.93,133.8 1948.78,133.8C2013.63,133.8 2013.63,100.7 2078.48,100.7C2143.33,100.7 2143.33,133.8 2208.18,133.8C2273.03,133.8 2273.03,100.7 2337.88,100.7C2402.73,100.7 2402.73,133.8 2467.58,133.8C2532.43,133.8 2532.43,100.7 2597.29,100.7C2662.15,100.7 2662.14,133.8 2726.99,133.8C2791.84,133.8 2791.84,100.7 2856.69,100.7C2921.54,100.7 2921.54,133.8 2986.4,133.8C3051.26,133.8 3051.24,100.7 3116.09,100.7C3180.94,100.7 3180.94,133.8 3245.79,133.8C3310.64,133.8 3310.64,100.7 3375.49,100.7C3440.34,100.7 3440.34,133.8 3505.2,133.8C3570.06,133.8 3570.05,100.7 3634.9,100.7C3699.75,100.7 3699.75,133.8 3764.61,133.8C3829.47,133.8 3829.46,100.7 3894.31,100.7C3959.16,100.7 3959.17,133.8 4024.02,133.8C4088.87,133.8 4088.87,100.7 4153.73,100.7C4218.59,100.7 4218.58,133.8 4283.44,133.8C4348.3,133.8 4348.29,100.7 4413.15,100.7C4478.01,100.7 4478.01,133.8 4542.87,133.8" style="fill:none;fill-rule:nonzero;stroke:rgb(109,17,234);stroke-width:6.62px;"/>
                <path d="M3.31,68.24C68.16,68.24 68.16,101.34 133,101.34C197.84,101.34 197.85,68.24 262.7,68.24C327.55,68.24 327.54,101.34 392.39,101.34C457.24,101.34 457.24,68.24 522.09,68.24C586.94,68.24 586.93,101.34 651.78,101.34C716.63,101.34 716.63,68.24 781.49,68.24C846.35,68.24 846.34,101.34 911.19,101.34C976.04,101.34 976.04,68.24 1040.89,68.24C1105.74,68.24 1105.74,101.34 1170.58,101.34C1235.42,101.34 1235.43,68.24 1300.28,68.24C1365.13,68.24 1365.13,101.34 1429.98,101.34C1494.83,101.34 1494.83,68.24 1559.68,68.24C1624.53,68.24 1624.53,101.34 1689.38,101.34C1754.23,101.34 1754.23,68.24 1819.08,68.24C1883.93,68.24 1883.93,101.34 1948.78,101.34C2013.63,101.34 2013.63,68.24 2078.48,68.24C2143.33,68.24 2143.33,101.34 2208.18,101.34C2273.03,101.34 2273.03,68.24 2337.88,68.24C2402.73,68.24 2402.73,101.34 2467.58,101.34C2532.43,101.34 2532.43,68.24 2597.29,68.24C2662.15,68.24 2662.14,101.34 2726.99,101.34C2791.84,101.34 2791.84,68.24 2856.69,68.24C2921.54,68.24 2921.54,101.34 2986.4,101.34C3051.26,101.34 3051.24,68.24 3116.09,68.24C3180.94,68.24 3180.94,101.34 3245.79,101.34C3310.64,101.34 3310.64,68.24 3375.49,68.24C3440.34,68.24 3440.34,101.34 3505.2,101.34C3570.06,101.34 3570.05,68.24 3634.9,68.24C3699.75,68.24 3699.75,101.34 3764.61,101.34C3829.47,101.34 3829.46,68.24 3894.31,68.24C3959.16,68.24 3959.17,101.34 4024.02,101.34C4088.87,101.34 4088.87,68.24 4153.73,68.24C4218.59,68.24 4218.58,101.34 4283.44,101.34C4348.3,101.34 4348.29,68.24 4413.15,68.24C4478.01,68.24 4478.01,101.34 4542.87,101.34" style="fill:none;fill-rule:nonzero;stroke:rgb(109,17,234);stroke-width:6.62px;"/>
                <path d="M3.31,35.77C68.16,35.77 68.16,68.87 133,68.87C197.84,68.87 197.85,35.77 262.7,35.77C327.55,35.77 327.54,68.87 392.39,68.87C457.24,68.87 457.24,35.77 522.09,35.77C586.94,35.77 586.93,68.87 651.78,68.87C716.63,68.87 716.63,35.77 781.49,35.77C846.35,35.77 846.34,68.87 911.19,68.87C976.04,68.87 976.04,35.77 1040.89,35.77C1105.74,35.77 1105.74,68.87 1170.58,68.87C1235.42,68.87 1235.43,35.77 1300.28,35.77C1365.13,35.77 1365.13,68.87 1429.98,68.87C1494.83,68.87 1494.83,35.77 1559.68,35.77C1624.53,35.77 1624.53,68.87 1689.38,68.87C1754.23,68.87 1754.23,35.77 1819.08,35.77C1883.93,35.77 1883.93,68.87 1948.78,68.87C2013.63,68.87 2013.63,35.77 2078.48,35.77C2143.33,35.77 2143.33,68.87 2208.18,68.87C2273.03,68.87 2273.03,35.77 2337.88,35.77C2402.73,35.77 2402.73,68.87 2467.58,68.87C2532.43,68.87 2532.43,35.77 2597.29,35.77C2662.15,35.77 2662.14,68.87 2726.99,68.87C2791.84,68.87 2791.84,35.77 2856.69,35.77C2921.54,35.77 2921.54,68.87 2986.4,68.87C3051.26,68.87 3051.24,35.77 3116.09,35.77C3180.94,35.77 3180.94,68.87 3245.79,68.87C3310.64,68.87 3310.64,35.77 3375.49,35.77C3440.34,35.77 3440.34,68.87 3505.2,68.87C3570.06,68.87 3570.05,35.77 3634.9,35.77C3699.75,35.77 3699.75,68.87 3764.61,68.87C3829.47,68.87 3829.46,35.77 3894.31,35.77C3959.16,35.77 3959.17,68.87 4024.02,68.87C4088.87,68.87 4088.87,35.77 4153.73,35.77C4218.59,35.77 4218.58,68.87 4283.44,68.87C4348.3,68.87 4348.29,35.77 4413.15,35.77C4478.01,35.77 4478.01,68.87 4542.87,68.87" style="fill:none;fill-rule:nonzero;stroke:rgb(109,17,234);stroke-width:6.62px;"/>
                <path d="M3.31,3.31C68.16,3.31 68.16,36.41 133,36.41C197.84,36.41 197.85,3.31 262.7,3.31C327.55,3.31 327.54,36.41 392.39,36.41C457.24,36.41 457.24,3.31 522.09,3.31C586.94,3.31 586.93,36.41 651.78,36.41C716.63,36.41 716.63,3.31 781.49,3.31C846.35,3.31 846.34,36.41 911.19,36.41C976.04,36.41 976,3.31 1040.89,3.31C1105.78,3.31 1105.74,36.41 1170.58,36.41C1235.42,36.41 1235.43,3.31 1300.28,3.31C1365.13,3.31 1365.13,36.41 1429.98,36.41C1494.83,36.41 1494.83,3.31 1559.68,3.31C1624.53,3.31 1624.53,36.41 1689.38,36.41C1754.23,36.41 1754.23,3.31 1819.08,3.31C1883.93,3.31 1883.93,36.41 1948.78,36.41C2013.63,36.41 2013.63,3.31 2078.48,3.31C2143.33,3.31 2143.33,36.41 2208.18,36.41C2273.03,36.41 2273.03,3.31 2337.88,3.31C2402.73,3.31 2402.73,36.41 2467.58,36.41C2532.43,36.41 2532.43,3.31 2597.29,3.31C2662.15,3.31 2662.14,36.41 2726.99,36.41C2791.84,36.41 2791.84,3.31 2856.69,3.31C2921.54,3.31 2921.54,36.41 2986.4,36.41C3051.26,36.41 3051.24,3.31 3116.09,3.31C3180.94,3.31 3180.94,36.41 3245.79,36.41C3310.64,36.41 3310.64,3.31 3375.49,3.31C3440.34,3.31 3440.34,36.41 3505.2,36.41C3570.06,36.41 3570.05,3.31 3634.9,3.31C3699.75,3.31 3699.75,36.41 3764.61,36.41C3829.47,36.41 3829.46,3.31 3894.31,3.31C3959.16,3.31 3959.17,36.41 4024.02,36.41C4088.87,36.41 4088.87,3.31 4153.73,3.31C4218.59,3.31 4218.58,36.41 4283.44,36.41C4348.3,36.41 4348.29,3.31 4413.15,3.31C4478.01,3.31 4478.01,36.41 4542.87,36.41" style="fill:none;fill-rule:nonzero;stroke:rgb(109,17,234);stroke-width:6.62px;"/>
            </g>
        </g>
    </g>
</svg>
